<svg width="48" height="48" viewBox="0 0 48 48" fill="none" xmlns="http://www.w3.org/2000/svg">
<path fill-rule="evenodd" clip-rule="evenodd" d="M23.204 37.272C23.4435 37.4184 23.7193 37.4946 24 37.492C24.2807 37.4946 24.5565 37.4184 24.796 37.272L27.066 35.91C29.2622 34.5908 31.7339 33.7977 34.2876 33.593C36.8413 33.3883 39.4078 33.7775 41.786 34.73C43.566 35.442 45.5 34.13 45.5 32.216V8.9C45.5 7.744 44.796 6.706 43.722 6.276C40.6584 5.05051 37.3529 4.55005 34.0639 4.81373C30.7748 5.07741 27.5913 6.09809 24.762 7.796L24 8.248L23.236 7.79C20.4068 6.09209 17.2232 5.07141 13.9342 4.80773C10.6451 4.54405 7.33962 5.04451 4.27602 6.27C3.75025 6.47953 3.2997 6.84242 2.98296 7.31147C2.66621 7.78052 2.49794 8.33402 2.50002 8.9V32.22C2.50002 34.134 4.43402 35.444 6.21402 34.732C8.59228 33.7795 11.1587 33.3903 13.7125 33.595C16.2662 33.7997 18.7379 34.5928 20.934 35.912L23.204 37.272ZM5.50002 9.016V31.79C8.26386 30.7528 11.2263 30.3533 14.1661 30.6214C17.106 30.8894 19.9473 31.8181 22.478 33.338L22.5 33.35V10.85L21.694 10.366C19.2783 8.91617 16.5618 8.04047 13.7541 7.80641C10.9464 7.57235 8.1225 7.98618 5.50002 9.016ZM25.522 33.336L25.5 33.35V10.85L26.306 10.366C28.7218 8.91617 31.4382 8.04047 34.2459 7.80641C37.0536 7.57235 39.8775 7.98618 42.5 9.016V31.79C39.7362 30.7528 36.7738 30.3533 33.8339 30.6214C30.894 30.8894 28.0527 31.8181 25.522 33.338" fill="#FFFF"/>
<path d="M18.55 38.084C16.5619 36.9244 14.3016 36.3133 12 36.3133C9.69843 36.3133 7.43811 36.9244 5.45002 38.084L5.24402 38.204C5.07382 38.3033 4.92485 38.4351 4.80561 38.592C4.68636 38.7488 4.59918 38.9276 4.54903 39.1182C4.49889 39.3087 4.48677 39.5073 4.51336 39.7025C4.53995 39.8977 4.60474 40.0858 4.70402 40.256C4.8033 40.4262 4.93513 40.5752 5.09198 40.6944C5.24883 40.8137 5.42763 40.9008 5.61818 40.951C5.80873 41.0011 6.00728 41.0132 6.20251 40.9867C6.39774 40.9601 6.58582 40.8953 6.75602 40.796L6.96202 40.676C8.49121 39.7841 10.2298 39.3142 12 39.3142C13.7703 39.3142 15.5088 39.7841 17.038 40.676L19.214 41.944C20.6667 42.7912 22.3183 43.2376 24 43.2376C25.6817 43.2376 27.3333 42.7912 28.786 41.944L30.962 40.676C32.4912 39.7841 34.2297 39.3142 36 39.3142C37.7703 39.3142 39.5088 39.7841 41.038 40.676L41.244 40.796C41.5877 40.9965 41.997 41.0523 42.3819 40.951C42.7667 40.8497 43.0955 40.5997 43.296 40.256C43.4965 39.9123 43.5523 39.503 43.451 39.1182C43.3497 38.7333 43.0997 38.4045 42.756 38.204L42.55 38.084C40.5619 36.9244 38.3016 36.3133 36 36.3133C33.6984 36.3133 31.4381 36.9244 29.45 38.084L27.276 39.352C26.2817 39.9322 25.1512 40.2379 24 40.2379C22.8488 40.2379 21.7183 39.9322 20.724 39.352L18.55 38.084Z" fill="#FFFF"/>
</svg>
