<svg xmlns="http://www.w3.org/2000/svg" style="display: none;">
  <defs>
    <symbol id="logo-icon" viewBox="0 0 48 48" fill="none" xmlns="http://www.w3.org/2000/svg">
      <path fill-rule="evenodd" clip-rule="evenodd" d="M23.204 37.272C23.4435 37.4184 23.7193 37.4946 24 37.492C24.2807 37.4946 24.5565 37.4184 24.796 37.272L27.066 35.91C29.2622 34.5908 31.7339 33.7977 34.2876 33.593C36.8413 33.3883 39.4078 33.7775 41.786 34.73C43.566 35.442 45.5 34.13 45.5 32.216V8.9C45.5 7.744 44.796 6.706 43.722 6.276C40.6584 5.05051 37.3529 4.55005 34.0639 4.81373C30.7748 5.07741 27.5913 6.09809 24.762 7.796L24 8.248L23.236 7.79C20.4068 6.09209 17.2232 5.07141 13.9342 4.80773C10.6451 4.54405 7.33962 5.04451 4.27602 6.27C3.75025 6.47953 3.2997 6.84242 2.98296 7.31147C2.66621 7.78052 2.49794 8.33402 2.50002 8.9V32.22C2.50002 34.134 4.43402 35.444 6.21402 34.732C8.59228 33.7795 11.1587 33.3903 13.7125 33.595C16.2662 33.7997 18.7379 34.5928 20.934 35.912L23.204 37.272ZM5.50002 9.016V31.79C8.26386 30.7528 11.2263 30.3533 14.1661 30.6214C17.106 30.8894 19.9473 31.8181 22.478 33.338L22.5 33.35V10.85L21.694 10.366C19.2783 8.91617 16.5618 8.04047 13.7541 7.80641C10.9464 7.57235 8.1225 7.98618 5.50002 9.016ZM25.522 33.336L25.5 33.35V10.85L26.306 10.366C28.7218 8.91617 31.4382 8.04047 34.2459 7.80641C37.0536 7.57235 39.8775 7.98618 42.5 9.016V31.79C39.7362 30.7528 36.7738 30.3533 33.8339 30.6214C30.894 30.8894 28.0527 31.8181 25.522 33.338" fill="#2A2A2A"/>
      <path d="M18.55 38.084C16.5619 36.9244 14.3016 36.3133 12 36.3133C9.69843 36.3133 7.43811 36.9244 5.45002 38.084L5.24402 38.204C5.07382 38.3033 4.92485 38.4351 4.80561 38.592C4.68636 38.7488 4.59918 38.9276 4.54903 39.1182C4.49889 39.3087 4.48677 39.5073 4.51336 39.7025C4.53995 39.8977 4.60474 40.0858 4.70402 40.256C4.8033 40.4262 4.93513 40.5752 5.09198 40.6944C5.24883 40.8137 5.42763 40.9008 5.61818 40.951C5.80873 41.0011 6.00728 41.0132 6.20251 40.9867C6.39774 40.9601 6.58582 40.8953 6.75602 40.796L6.96202 40.676C8.49121 39.7841 10.2298 39.3142 12 39.3142C13.7703 39.3142 15.5088 39.7841 17.038 40.676L19.214 41.944C20.6667 42.7912 22.3183 43.2376 24 43.2376C25.6817 43.2376 27.3333 42.7912 28.786 41.944L30.962 40.676C32.4912 39.7841 34.2297 39.3142 36 39.3142C37.7703 39.3142 39.5088 39.7841 41.038 40.676L41.244 40.796C41.5877 40.9965 41.997 41.0523 42.3819 40.951C42.7667 40.8497 43.0955 40.5997 43.296 40.256C43.4965 39.9123 43.5523 39.503 43.451 39.1182C43.3497 38.7333 43.0997 38.4045 42.756 38.204L42.55 38.084C40.5619 36.9244 38.3016 36.3133 36 36.3133C33.6984 36.3133 31.4381 36.9244 29.45 38.084L27.276 39.352C26.2817 39.9322 25.1512 40.2379 24 40.2379C22.8488 40.2379 21.7183 39.9322 20.724 39.352L18.55 38.084Z" fill="#2A2A2A"/>
    </symbol>

   

<symbol id="home-icon" xmlns="http://www.w3.org/2000/svg" fill="none" viewBox="0 0 24 24" stroke-width="1.5" stroke="currentColor" class="size-6">
  <path stroke-linecap="round" stroke-linejoin="round" d="m2.25 12 8.954-8.955c.44-.439 1.152-.439 1.591 0L21.75 12M4.5 9.75v10.125c0 .621.504 1.125 1.125 1.125H9.75v-4.875c0-.621.504-1.125 1.125-1.125h2.25c.621 0 1.125.504 1.125 1.125V21h4.125c.621 0 1.125-.504 1.125-1.125V9.75M8.25 21h8.25" />
</symbol>

<symbol id="search-icon" xmlns="http://www.w3.org/2000/svg" fill="none" viewBox="0 0 24 24" stroke-width="1.5" stroke="currentColor" class="size-6">
  <path stroke-linecap="round" stroke-linejoin="round" d="m21 21-5.197-5.197m0 0A7.5 7.5 0 1 0 5.196 5.196a7.5 7.5 0 0 0 10.607 10.607Z" />
</symbol>

    
<symbol id='saved-icon' xmlns="http://www.w3.org/2000/svg"   fill="none" viewBox="0 0 24 24" stroke-width="1.5" stroke="currentColor" class="size-6">
  <path stroke-linecap="round" stroke-linejoin="round" d="M17.593 3.322c1.1.128 1.907 1.077 1.907 2.185V21L12 17.25 4.5 21V5.507c0-1.108.806-2.057 1.907-2.185a48.507 48.507 0 0 1 11.186 0Z" />
</symbol>


<symbol  id='what-to-read'  xmlns="http://www.w3.org/2000/svg" fill="none" viewBox="0 0 24 24" stroke-width="1.5" stroke="currentColor" class="size-6">
  <path stroke-linecap="round" stroke-linejoin="round" d="M9.879 7.519c1.171-1.025 3.071-1.025 4.242 0 1.172 1.025 1.172 2.687 0 3.712-.203.179-.43.326-.67.442-.745.361-1.45.999-1.45 1.827v.75M21 12a9 9 0 1 1-18 0 9 9 0 0 1 18 0Zm-9 5.25h.008v.008H12v-.008Z" />
</symbol>

    


<svg  id='translate-to-voice' xmlns="http://www.w3.org/2000/svg" fill="none" viewBox="0 0 24 24" stroke-width="1.5" stroke="currentColor" class="size-6">
  <path stroke-linecap="round" stroke-linejoin="round" d="M12 18.75a6 6 0 0 0 6-6v-1.5m-6 7.5a6 6 0 0 1-6-6v-1.5m6 7.5v3.75m-3.75 0h7.5M12 15.75a3 3 0 0 1-3-3V4.5a3 3 0 1 1 6 0v8.25a3 3 0 0 1-3 3Z" />
</svg>


<symbol id='add-friend'  xmlns="http://www.w3.org/2000/svg" fill="none" viewBox="0 0 24 24" stroke-width="1.5" stroke="currentColor" class="size-6">
  <path stroke-linecap="round" stroke-linejoin="round" d="M18 7.5v3m0 0v3m0-3h3m-3 0h-3m-2.25-4.125a3.375 3.375 0 1 1-6.75 0 3.375 3.375 0 0 1 6.75 0ZM3 19.235v-.11a6.375 6.375 0 0 1 12.75 0v.109A12.318 12.318 0 0 1 9.374 21c-2.331 0-4.512-.645-6.374-1.766Z" />
</symbol>


<symbol id='settings'  xmlns="http://www.w3.org/2000/svg" fill="none" viewBox="0 0 24 24" stroke-width="1.5" stroke="currentColor" class="size-6">
  <path stroke-linecap="round" stroke-linejoin="round" d="M10.343 3.94c.09-.542.56-.94 1.11-.94h1.093c.55 0 1.02.398 1.11.94l.149.894c.07.424.384.764.78.93.398.164.855.142 1.205-.108l.737-.527a1.125 1.125 0 0 1 1.45.12l.773.774c.39.389.44 1.002.12 1.45l-.527.737c-.25.35-.272.806-.107 1.204.165.397.505.71.93.78l.893.15c.543.09.94.559.94 1.109v1.094c0 .55-.397 1.02-.94 1.11l-.894.149c-.424.07-.764.383-.929.78-.165.398-.143.854.107 1.204l.527.738c.32.447.269 1.06-.12 1.45l-.774.773a1.125 1.125 0 0 1-1.449.12l-.738-.527c-.35-.25-.806-.272-1.203-.107-.398.165-.71.505-.781.929l-.149.894c-.09.542-.56.94-1.11.94h-1.094c-.55 0-1.019-.398-1.11-.94l-.148-.894c-.071-.424-.384-.764-.781-.93-.398-.164-.854-.142-1.204.108l-.738.527c-.447.32-1.06.269-1.45-.12l-.773-.774a1.125 1.125 0 0 1-.12-1.45l.527-.737c.25-.35.272-.806.108-1.204-.165-.397-.506-.71-.93-.78l-.894-.15c-.542-.09-.94-.56-.94-1.109v-1.094c0-.55.398-1.02.94-1.11l.894-.149c.424-.07.765-.383.93-.78.165-.398.143-.854-.108-1.204l-.526-.738a1.125 1.125 0 0 1 .12-1.45l.773-.773a1.125 1.125 0 0 1 1.45-.12l.737.527c.35.25.807.272 1.204.107.397-.165.71-.505.78-.929l.15-.894Z" />
  <path stroke-linecap="round" stroke-linejoin="round" d="M15 12a3 3 0 1 1-6 0 3 3 0 0 1 6 0Z" />
</symbol>

<symbol id='notifications' xmlns="http://www.w3.org/2000/svg" fill="none" viewBox="0 0 24 24" stroke-width="1.5" stroke="currentColor" class="size-6">
  <path stroke-linecap="round" stroke-linejoin="round" d="M14.857 17.082a23.848 23.848 0 0 0 5.454-1.31A8.967 8.967 0 0 1 18 9.75V9A6 6 0 0 0 6 9v.75a8.967 8.967 0 0 1-2.312 6.022c1.733.64 3.56 1.085 5.455 1.31m5.714 0a24.255 24.255 0 0 1-5.714 0m5.714 0a3 3 0 1 1-5.714 0" />
</symbol>

<symbol id='arrow-right' xmlns="http://www.w3.org/2000/svg" fill="none" viewBox="0 0 24 24" stroke-width="1.5" stroke="currentColor" class="size-6">
  <path stroke-linecap="round" stroke-linejoin="round" d="m8.25 4.5 7.5 7.5-7.5 7.5" />
</symbol>

<symbol id='burger-menu' xmlns="http://www.w3.org/2000/svg" fill="none" viewBox="0 0 24 24" stroke-width="1.5" stroke="currentColor" class="size-6">
  <path stroke-linecap="round" stroke-linejoin="round" d="M3.75 6.75h16.5M3.75 12h16.5m-16.5 5.25h16.5" />
</symbol>


<symbol id='dark-mode' xmlns="http://www.w3.org/2000/svg" fill="none" viewBox="0 0 24 24" stroke-width="1.5" stroke="currentColor" class="size-6">
  <path stroke-linecap="round" stroke-linejoin="round" d="M21.752 15.002A9.72 9.72 0 0 1 18 15.75c-5.385 0-9.75-4.365-9.75-9.75 0-1.33.266-2.597.748-3.752A9.753 9.753 0 0 0 3 11.25C3 16.635 7.365 21 12.75 21a9.753 9.753 0 0 0 9.002-5.998Z" />
</symbol>



    <symbol id="icon-trash" viewBox="0 0 48 48">
      <path fill-rule="evenodd" clip-rule="evenodd" d="M19.5312 25C20.1823 25 20.7357 24.7721 21.1914 24.3164C21.6471 23.8607 21.875 23.3073 21.875 22.6562V4.6875H23.1445C23.2096 4.6875 23.2747 4.65495 23.3398 4.58984C23.4049 4.52474 23.4375 4.45964 23.4375 4.39453V4.29688C23.4375 3.97135 23.3236 3.69466 23.0957 3.4668C22.8678 3.23893 22.5911 3.125 22.2656 3.125H17.9688L16.3086 0.927734C15.8529 0.309245 15.2344 0 14.4531 0H10.5469C9.76562 0 9.14714 0.309245 8.69141 0.927734L7.03125 3.125H2.73438C2.40885 3.125 2.13216 3.23893 1.9043 3.4668C1.67643 3.69466 1.5625 3.97135 1.5625 4.29688V4.39453C1.5625 4.45964 1.59505 4.52474 1.66016 4.58984C1.72526 4.65495 1.79036 4.6875 1.85547 4.6875H3.125V22.6562C3.125 23.3073 3.35286 23.8607 3.80859 24.3164C4.26432 24.7721 4.81771 25 5.46875 25H19.5312ZM16.0156 3.12501H8.98438L9.91211 1.85548C10.0749 1.66016 10.2865 1.56251 10.5469 1.56251H14.4531C14.7135 1.56251 14.9251 1.66016 15.0879 1.85548L16.0156 3.12501ZM19.5312 23.4375H5.46875C5.24089 23.4375 5.05371 23.3643 4.90723 23.2178C4.76074 23.0713 4.6875 22.8841 4.6875 22.6562V4.68749H20.3125V22.6562C20.3125 22.8841 20.2393 23.0713 20.0928 23.2178C19.9463 23.3643 19.7591 23.4375 19.5312 23.4375ZM12.6953 21.0938C12.8581 21.0938 12.9964 21.0368 13.1104 20.9229C13.2243 20.8089 13.2812 20.6706 13.2812 20.5078V7.61719C13.2812 7.45443 13.2243 7.31609 13.1104 7.20215C12.9964 7.08822 12.8581 7.03126 12.6953 7.03126H12.3047C12.1419 7.03126 12.0036 7.08822 11.8896 7.20215C11.7757 7.31609 11.7188 7.45443 11.7188 7.61719V20.5078C11.7188 20.6706 11.7757 20.8089 11.8896 20.9229C12.0036 21.0368 12.1419 21.0938 12.3047 21.0938H12.6953ZM8.78906 21.0938C8.95182 21.0938 9.09017 21.0368 9.2041 20.9229C9.31803 20.8089 9.375 20.6706 9.375 20.5078V7.61719C9.375 7.45443 9.31803 7.31609 9.2041 7.20215C9.09017 7.08822 8.95182 7.03126 8.78906 7.03126H8.39844C8.23568 7.03126 8.09733 7.08822 7.9834 7.20215C7.86947 7.31609 7.8125 7.45443 7.8125 7.61719V20.5078C7.8125 20.6706 7.86947 20.8089 7.9834 20.9229C8.09733 21.0368 8.23568 21.0938 8.39844 21.0938H8.78906ZM16.6016 21.0938C16.7643 21.0938 16.9027 21.0368 17.0166 20.9229C17.1305 20.8089 17.1875 20.6706 17.1875 20.5078V7.61719C17.1875 7.45443 17.1305 7.31609 17.0166 7.20215C16.9027 7.08822 16.7643 7.03126 16.6016 7.03126H16.2109C16.0482 7.03126 15.9098 7.08822 15.7959 7.20215C15.682 7.31609 15.625 7.45443 15.625 7.61719V20.5078C15.625 20.6706 15.682 20.8089 15.7959 20.9229C15.9098 21.0368 16.0482 21.0938 16.2109 21.0938H16.6016Z" fill="currentColor"/>
    </symbol>
  </defs>
</svg>


